<svg id="Outer_Circle" xmlns="http://www.w3.org/2000/svg" xmlns:xlink="http://www.w3.org/1999/xlink" viewBox="0 0 504.56 334.35"><defs><style>.cls-1{fill:none;}.cls-2{fill:url(#linear-gradient);}.cls-3,.cls-4,.cls-5,.cls-6,.cls-7,.cls-8,.cls-9{stroke:#a82ac6;stroke-miterlimit:10;stroke-opacity:0.69;stroke-width:0.7px;}.cls-3{fill:url(#linear-gradient-2);}.cls-4{fill:url(#linear-gradient-3);}.cls-5{fill:url(#linear-gradient-4);}.cls-6{fill:url(#linear-gradient-5);}.cls-7{fill:url(#linear-gradient-6);}.cls-8{fill:url(#linear-gradient-7);}.cls-9{fill:url(#linear-gradient-8);}</style><linearGradient id="linear-gradient" x1="235.02" y1="143.91" x2="435.37" y2="216.83" gradientUnits="userSpaceOnUse"><stop offset="0" stop-color="#0017bf"/><stop offset="0.06" stop-color="#0826c3"/><stop offset="0.29" stop-color="#235bd2"/><stop offset="0.51" stop-color="#3985dd"/><stop offset="0.71" stop-color="#49a3e5"/><stop offset="0.88" stop-color="#53b5ea"/><stop offset="1" stop-color="#56bcec"/></linearGradient><linearGradient id="linear-gradient-2" x1="261.29" y1="63.13" x2="274.12" y2="63.13" gradientUnits="userSpaceOnUse"><stop offset="0" stop-color="#9a61ff"/><stop offset="0.22" stop-color="#a878f0"/><stop offset="0.5" stop-color="#b78fe1"/><stop offset="0.77" stop-color="#c09dd7"/><stop offset="1" stop-color="#c3a2d4"/></linearGradient><linearGradient id="linear-gradient-3" x1="51.77" y1="164.33" x2="227.61" y2="164.33" xlink:href="#linear-gradient-2"/><linearGradient id="linear-gradient-4" x1="286.96" y1="35.29" x2="299.79" y2="35.29" xlink:href="#linear-gradient-2"/><linearGradient id="linear-gradient-5" x1="230.5" y1="132.25" x2="248.54" y2="132.25" xlink:href="#linear-gradient-2"/><linearGradient id="linear-gradient-6" x1="26.1" y1="177.16" x2="200.11" y2="177.16" xlink:href="#linear-gradient-2"/><linearGradient id="linear-gradient-7" x1="0.43" y1="190" x2="185.2" y2="190" xlink:href="#linear-gradient-2"/><linearGradient id="linear-gradient-8" x1="77.43" y1="151.5" x2="222.87" y2="151.5" xlink:href="#linear-gradient-2"/></defs><title>YouFeatured_Logo_Finalizing</title><polygon class="cls-1" points="330.35 39.67 315.68 39.67 180.37 334.35 194.77 334.35 330.35 39.67"/><polygon class="cls-1" points="359.85 39.67 344.93 39.67 209.43 334.35 224.42 334.35 359.85 39.67"/><path class="cls-1" d="M107.82,238.65q17.55,15.51,42.33,15.51t42.33-15.51Q210,223.15,210,201.4V36H90.27V201.4Q90.27,223.15,107.82,238.65Z" transform="translate(-0.08 -35.65)"/><polygon class="cls-2" points="295.3 52.13 165.71 334.35 180.37 334.35 315.68 39.67 330.35 39.67 194.77 334.35 209.43 334.35 344.93 39.67 359.85 39.67 224.42 334.35 239 334.35 288.52 226.18 412.63 226.18 418.75 212.85 294.66 212.85 300.8 199.53 424.87 199.53 430.99 186.21 306.94 186.21 313.08 172.89 437.1 172.89 443.22 159.57 319.22 159.57 349.92 92.94 349.92 92.96 473.82 92.96 479.94 79.64 356.05 79.64 362.19 66.31 486.06 66.31 492.18 52.99 368.33 52.99 374.47 39.67 498.29 39.67 504.29 26.62 504.56 26.74 504.56 26.35 307.25 26.35 307.16 26.31 299.79 42.36 299.79 42.4 295.3 52.13"/><polygon class="cls-3" points="261.29 125.9 274.12 98.07 274.12 0.35 261.29 0.35 261.29 125.9"/><path class="cls-4" d="M51.77,201.4a82.81,82.81,0,0,0,7.84,35.38,93.13,93.13,0,0,0,21,29.14A99,99,0,0,0,112,285.44a104.38,104.38,0,0,0,76.29,0,103.71,103.71,0,0,0,21.16-11.29l18.15-39.37c-1,2-2.16,4-3.4,5.93A81.88,81.88,0,0,1,193,269.31a89.58,89.58,0,0,1-42.87,10.52,89.55,89.55,0,0,1-42.87-10.52A81.85,81.85,0,0,1,76.09,240.7a71.87,71.87,0,0,1-11.5-39.3V36H51.77Z" transform="translate(-0.08 -35.65)"/><polygon class="cls-5" points="286.95 0.35 286.95 70.23 295.3 52.13 299.79 42.4 299.79 42.36 299.79 0.35 286.95 0.35"/><path class="cls-6" d="M235.71,201.4a71.62,71.62,0,0,1-5.2,27.1l18-39.12V36H235.71Z" transform="translate(-0.08 -35.65)"/><path class="cls-7" d="M26.1,201.4A107.94,107.94,0,0,0,36,246.76,118.7,118.7,0,0,0,62.46,284.1a124.63,124.63,0,0,0,39.57,25,129.71,129.71,0,0,0,90.31,2.22l7.77-16.85a114.57,114.57,0,0,1-50,11.06,114.16,114.16,0,0,1-55.7-14,107.94,107.94,0,0,1-40.55-38,96.55,96.55,0,0,1-15-52.13V36H26.1Z" transform="translate(-0.08 -35.65)"/><path class="cls-8" d="M.43,201.4a134.15,134.15,0,0,0,20.14,71.38,146,146,0,0,0,54.63,52A151.81,151.81,0,0,0,150.15,344a159.69,159.69,0,0,0,28.25-2.48l6.8-14.75a141.44,141.44,0,0,1-88.08-5.94,139.14,139.14,0,0,1-43.76-27.72,130.16,130.16,0,0,1-29.23-41.44A120.72,120.72,0,0,1,13.27,201.4V36H.43Z" transform="translate(-0.08 -35.65)"/><path class="cls-9" d="M210,201.4q0,21.75-17.56,37.25t-42.33,15.51q-24.78,0-42.33-15.51T90.27,201.4V36H77.43V201.4q0,27.1,21.39,46.34T150.15,267q29.94,0,51.33-19.25t21.39-46.34V36H210Z" transform="translate(-0.08 -35.65)"/></svg>